<svg width="36" height="36" viewBox="0 0 36 36" fill="none" xmlns="http://www.w3.org/2000/svg">
<g id="play">
<path id="Vector" d="M7.82355 25.8436V10.1574C7.82355 8.8639 7.82355 8.21644 8.09574 7.83373C8.33331 7.49971 8.69948 7.2804 9.106 7.22797C9.57161 7.16792 10.1427 7.47248 11.2832 8.08074L25.989 15.9239L25.9944 15.9263C27.2548 16.5985 27.8852 16.9347 28.0921 17.3829C28.2725 17.7739 28.2725 18.2252 28.0921 18.6161C27.885 19.0649 27.253 19.4026 25.989 20.0767L11.2832 27.9198C10.1419 28.5285 9.57178 28.8319 9.106 28.7718C8.69948 28.7194 8.33331 28.5001 8.09574 28.1661C7.82355 27.7834 7.82355 27.1371 7.82355 25.8436Z" fill="black" stroke="black" stroke-width="2" stroke-linecap="round" stroke-linejoin="round"/>
</g>
</svg>
